# xmcd
#
# Track frame offsets: 
#        150
#        16597
#        33577
#        52740
#        68940
#        82782
#        97467
#        113950
#        126820
#        145975
#        159920
#        178007
#        198500
#        212815
#
# Disc length: 3168 seconds
#
# Revision: 2
# Processed by: cddbd v1.5.2PL0 Copyright (c) Steve Scherf et al.
# Submitted via: ExactAudioCopy v1.0b3
#
DISCID=be0c5e0e
DTITLE=Rodgers, Jimmy (songwriter) - Various Artists performing - The S
DTITLE=ongs Of Jimmie Rodgers - A Tribute
DYEAR=1900
DGENRE=
TTITLE0=Bono - Dreaming With Tears In My Eyes
TTITLE1=Alison Krauss and Union Starion - Any Old Time
TTITLE2=Dickey Betts - Waiting For A Train
TTITLE3=Mary Chapin Carpenter - Somewhere Down Below The Mason Dixon L
TTITLE3=ine
TTITLE4=David Ball - Miss the Mississippi and You
TTITLE5=Bob Dylan - My Blue Eyed Jane
TTITLE6=Willie Nelson - Peach Pickin' Time Down In Georgia
TTITLE7=Steve Earle  - In The Jailhouse Now
TTITLE8=Jerry Garcia - Blue Yodel # 9
TTITLE9=Iris DeMent - Hobo Bill's Last Ride
TTITLE10=John Mellencamp - Gambling Bar Room Blues
TTITLE11=Van Morrison - Mule Skinner Blues
TTITLE12=Aaron Neville - Why Should I Be Lonely
TTITLE13=Dwight Yoakam - T For Texas
EXTD=The first release on Bob Dylan's Egyptian Records imprint (a Sony
EXTD=Columbia brand).\n\nAlbum notes by Bob Dylan\n\nSee http://www
EXTD=music.sony.com/Music/JimmieRodgers/TheSongsOfJimmieRodgers/Audio
EXTD=/main.html.
EXTT0=Bono\n
EXTT1=Alison Krauss and Union Station\n
EXTT2=Dickey Betts\n
EXTT3=Mary Chapin Carpenter\n
EXTT4=David Ball\n
EXTT5=Bob Dylan\n
EXTT6=Willie Nelson\n
EXTT7=Steve Earle and The V-Roys\n
EXTT8=Jerry Garcia, David Grisman and John Kahn\n
EXTT9=Iris DeMent\n
EXTT10=John Mellencamp\n
EXTT11=Van Morrison\n
EXTT12=Aaron Neville\n
EXTT13=Dwight Yoakam\n
PLAYORDER=
